<svg xmlns="http://www.w3.org/2000/svg" viewBox="0 0 32 32">
  <rect width="32" height="32" rx="6" fill="#1A1208"/>
  <g transform="translate(6,3) scale(0.04)">
    <path fill="#C8922A" d="M250 50c0 0-80 100-80 200c0 80 40 130 80 150c40-20 80-70 80-150c0-100-80-200-80-200z"/>
    <path fill="#E8B84A" d="M250 100c0 0-50 70-50 140c0 55 25 90 50 105c25-15 50-50 50-105c0-70-50-140-50-140z"/>
    <path fill="#F5F0E8" d="M250 160c0 0-25 40-25 75c0 30 12 50 25 58c13-8 25-28 25-58c0-35-25-75-25-75z"/>
  </g>
  <ellipse cx="16" cy="28" rx="8" ry="2" fill="#C8922A" opacity="0.3"/>
</svg>
